<svg xmlns="http://www.w3.org/2000/svg" viewBox="0 0 140.14 36.02"><defs><style>.cls-1{fill:#fff;}</style></defs><g id="Capa_2" data-name="Capa 2"><g id="Capa_1-2" data-name="Capa 1"><path class="cls-1" d="M9.8,34.76A7.1,7.1,0,0,1,5.22,33.3a8.67,8.67,0,0,1-2.7-3.86,14.87,14.87,0,0,1-.88-5.18,14.3,14.3,0,0,1,.94-5.33,8.37,8.37,0,0,1,2.78-3.74,7.36,7.36,0,0,1,4.5-1.37,7.56,7.56,0,0,1,2.3.33,6.54,6.54,0,0,1,1.85.92,5.94,5.94,0,0,1,1.37,1.37h.44V5l5.08-.48V34.26H16.56l-.3-2.66h-.38a8.92,8.92,0,0,1-1.66,1.74,6.52,6.52,0,0,1-2,1.06A7.73,7.73,0,0,1,9.8,34.76Zm1.84-4.38a4.61,4.61,0,0,0,1.74-.31,4.2,4.2,0,0,0,1.38-.89,6.59,6.59,0,0,0,1.06-1.36V20.36a4.94,4.94,0,0,0-1.13-1.15,5.28,5.28,0,0,0-1.42-.72,5,5,0,0,0-1.59-.25A4.31,4.31,0,0,0,9,19.07a5,5,0,0,0-1.6,2.2,8.38,8.38,0,0,0-.53,3,8.48,8.48,0,0,0,.51,3,5.13,5.13,0,0,0,1.57,2.25A4.15,4.15,0,0,0,11.64,30.38Z" transform="translate(-1.64 -4.48)"/><path class="cls-1" d="M35.76,34.74a12.52,12.52,0,0,1-6.18-1.35A8.44,8.44,0,0,1,26,29.67a12.3,12.3,0,0,1-1.15-5.45,12.61,12.61,0,0,1,1.1-5.4,8.43,8.43,0,0,1,3.22-3.66,9.66,9.66,0,0,1,5.2-1.32,10,10,0,0,1,4.54,1,6.57,6.57,0,0,1,2.92,2.91,10.39,10.39,0,0,1,1,4.85c0,.52,0,1,0,1.4a9.37,9.37,0,0,1-.13,1.2l-4.4-1.78a4.68,4.68,0,0,0,0-.55c0-.19,0-.37,0-.53a5.09,5.09,0,0,0-1.1-3.46,3.56,3.56,0,0,0-2.82-1.26,3.81,3.81,0,0,0-2.34.75,5,5,0,0,0-1.58,2.08A7.67,7.67,0,0,0,30,23.52v.78a7.58,7.58,0,0,0,.68,3.33,4.7,4.7,0,0,0,2.09,2.14,7.61,7.61,0,0,0,3.59.75,13.49,13.49,0,0,0,1.89-.15,15,15,0,0,0,2.12-.47,11.65,11.65,0,0,0,2-.82l.16,4.36a10.38,10.38,0,0,1-1.78.67,16.37,16.37,0,0,1-2.28.46A20.8,20.8,0,0,1,35.76,34.74ZM26.9,25.16V22l12.82-.22,3,1.14v2.24Z" transform="translate(-1.64 -4.48)"/><path class="cls-1" d="M51.68,34.26c-.44-1.25-.89-2.52-1.35-3.79L49,26.72,47.7,23.2c-.53-1.47-1.07-2.94-1.6-4.43s-1.07-3-1.6-4.43L50,14.18l1.31,4.45L52.6,23.1l1.66,5.66h.46l1.66-5.68c.45-1.53.9-3,1.33-4.47s.86-2.87,1.27-4.27h5.4q-.78,2.21-1.59,4.44t-1.61,4.46L59.9,26.8c-.44,1.25-.88,2.49-1.33,3.72s-.9,2.47-1.35,3.74Z" transform="translate(-1.64 -4.48)"/><path class="cls-1" d="M65.38,40.5a17.5,17.5,0,0,0,1.81-2.77,12.93,12.93,0,0,0,1.11-3,15,15,0,0,0,.38-3.48V5.74h5.6v25.9a15.13,15.13,0,0,1-.27,3A10.82,10.82,0,0,1,73.25,37,10.55,10.55,0,0,1,72.12,39a11.53,11.53,0,0,1-1.4,1.55Z" transform="translate(-1.64 -4.48)"/><path class="cls-1" d="M89.54,34.76a11.44,11.44,0,0,1-4.6-.85,9.06,9.06,0,0,1-3.26-2.33,9.81,9.81,0,0,1-1.94-3.38,12.29,12.29,0,0,1-.64-4,11.55,11.55,0,0,1,1.2-5.33,9,9,0,0,1,3.51-3.71,10.89,10.89,0,0,1,5.63-1.36,11.73,11.73,0,0,1,4.49.79,8.89,8.89,0,0,1,3.24,2.21,9.46,9.46,0,0,1,2,3.31,12.31,12.31,0,0,1,.66,4.09,11.67,11.67,0,0,1-1.21,5.38,9.24,9.24,0,0,1-3.51,3.77A10.48,10.48,0,0,1,89.54,34.76Zm0-4.2a4.37,4.37,0,0,0,2.85-.91,5.54,5.54,0,0,0,1.69-2.35,8.51,8.51,0,0,0,.56-3.08A8,8,0,0,0,94,20.91a5.07,5.07,0,0,0-7.36-2.06,5.07,5.07,0,0,0-1.76,2.23,8.56,8.56,0,0,0,0,6.22,5.58,5.58,0,0,0,1.75,2.35A4.58,4.58,0,0,0,89.52,30.56Z" transform="translate(-1.64 -4.48)"/><path class="cls-1" d="M115.28,34.76a8,8,0,0,1-2.47-.36,7,7,0,0,1-2-1,8.26,8.26,0,0,1-1.65-1.64h-.38l-.52,2.54h-4.06V5l5.08-.48v12h.44a5.53,5.53,0,0,1,1.36-1.37,6.73,6.73,0,0,1,1.86-.92,7.56,7.56,0,0,1,2.3-.33,7.36,7.36,0,0,1,4.5,1.37,8.37,8.37,0,0,1,2.78,3.74,14.5,14.5,0,0,1,.94,5.33,14.87,14.87,0,0,1-.88,5.18,8.67,8.67,0,0,1-2.7,3.86A7.1,7.1,0,0,1,115.28,34.76Zm-1.84-4.38a4.18,4.18,0,0,0,2.73-.87,5.13,5.13,0,0,0,1.57-2.25,8.72,8.72,0,0,0,.5-3,8.38,8.38,0,0,0-.53-3,5,5,0,0,0-1.6-2.2,4.31,4.31,0,0,0-2.71-.83,4.93,4.93,0,0,0-1.58.25,5.43,5.43,0,0,0-1.42.72,4.79,4.79,0,0,0-1.14,1.15v7.46a6.59,6.59,0,0,0,1.06,1.36,4.2,4.2,0,0,0,1.38.89A4.61,4.61,0,0,0,113.44,30.38Z" transform="translate(-1.64 -4.48)"/><path class="cls-1" d="M133.64,34.74a21,21,0,0,1-2.67-.17,16.82,16.82,0,0,1-2.41-.49,14.18,14.18,0,0,1-2-.7l.34-4.5a13.25,13.25,0,0,0,2,.92,12.41,12.41,0,0,0,2.23.61,12.86,12.86,0,0,0,2.3.21,7.84,7.84,0,0,0,1.6-.15,2,2,0,0,0,1.14-.61,2,2,0,0,0,.42-1.36,1.36,1.36,0,0,0-.42-1,4,4,0,0,0-1.4-.74c-.65-.23-1.54-.49-2.66-.78a11.79,11.79,0,0,1-2.94-1.13A4.94,4.94,0,0,1,127.3,23a5.7,5.7,0,0,1-.66-2.93,5.74,5.74,0,0,1,1.92-4.62,7.73,7.73,0,0,1,5.18-1.64,16.76,16.76,0,0,1,2.69.21,19.69,19.69,0,0,1,2.36.53,10.72,10.72,0,0,1,1.81.7l-.38,4.48a10.75,10.75,0,0,0-2-1,14.23,14.23,0,0,0-2.07-.59,9,9,0,0,0-1.67-.2,4.17,4.17,0,0,0-1.3.19,2,2,0,0,0-1,.63,2,2,0,0,0-.08,2.15,2.5,2.5,0,0,0,1.08.8,14.79,14.79,0,0,0,2.32.77A24.06,24.06,0,0,1,139,23.77a4.86,4.86,0,0,1,2.09,1.7,5.14,5.14,0,0,1,.69,2.85,6.71,6.71,0,0,1-.83,3.37,5.41,5.41,0,0,1-2.63,2.25A11.68,11.68,0,0,1,133.64,34.74Z" transform="translate(-1.64 -4.48)"/></g></g></svg>