<svg xmlns="http://www.w3.org/2000/svg" viewBox="0 0 216.31 36.02"><defs><style>.cls-1{fill:#1d1d1b;}.cls-2{fill:#32ae7f;}.cls-3{fill:#10b981;}</style></defs><g id="Capa_2" data-name="Capa 2"><g id="Capa_1-2" data-name="Capa 1"><path class="cls-1" d="M40.86,34.76a7.12,7.12,0,0,1-4.58-1.46,8.67,8.67,0,0,1-2.7-3.86,15.1,15.1,0,0,1-.88-5.18,14.5,14.5,0,0,1,.94-5.33,8.45,8.45,0,0,1,2.78-3.74,7.36,7.36,0,0,1,4.5-1.37,7.56,7.56,0,0,1,2.3.33,6.41,6.41,0,0,1,1.85.92,5.94,5.94,0,0,1,1.37,1.37h.44V5L52,4.48V34.26H47.62l-.3-2.66h-.38a8.63,8.63,0,0,1-1.66,1.74,6.4,6.4,0,0,1-2,1.06A7.73,7.73,0,0,1,40.86,34.76Zm1.84-4.38a4.61,4.61,0,0,0,1.74-.31,4.2,4.2,0,0,0,1.38-.89,6.27,6.27,0,0,0,1.06-1.36V20.36a4.75,4.75,0,0,0-1.13-1.15,5.13,5.13,0,0,0-1.42-.72,5,5,0,0,0-1.59-.25,4.33,4.33,0,0,0-2.71.83,5.08,5.08,0,0,0-1.6,2.2,8.38,8.38,0,0,0-.53,3,8.48,8.48,0,0,0,.51,3A5.21,5.21,0,0,0,40,29.51,4.17,4.17,0,0,0,42.7,30.38Z" transform="translate(-2.6 -4.48)"/><path class="cls-1" d="M66.82,34.74a12.52,12.52,0,0,1-6.18-1.35,8.44,8.44,0,0,1-3.55-3.72,12.44,12.44,0,0,1-1.15-5.45,12.61,12.61,0,0,1,1.1-5.4,8.5,8.5,0,0,1,3.22-3.66,9.68,9.68,0,0,1,5.2-1.32,9.94,9.94,0,0,1,4.54,1,6.57,6.57,0,0,1,2.92,2.91,10.39,10.39,0,0,1,1,4.85c0,.52,0,1,0,1.4a9.37,9.37,0,0,1-.13,1.2l-4.4-1.78a3.21,3.21,0,0,0,.05-.55c0-.19,0-.37,0-.53a5,5,0,0,0-1.1-3.46,3.56,3.56,0,0,0-2.82-1.26,3.81,3.81,0,0,0-2.34.75,5.12,5.12,0,0,0-1.58,2.08A7.84,7.84,0,0,0,61,23.52v.78a7.58,7.58,0,0,0,.68,3.33,4.75,4.75,0,0,0,2.09,2.14,7.61,7.61,0,0,0,3.59.75,13.49,13.49,0,0,0,1.89-.15,15,15,0,0,0,2.12-.47,11.34,11.34,0,0,0,2-.82l.16,4.36a10.07,10.07,0,0,1-1.78.67,16.37,16.37,0,0,1-2.28.46A20.8,20.8,0,0,1,66.82,34.74ZM58,25.16V22l12.82-.22,3,1.14v2.24Z" transform="translate(-2.6 -4.48)"/><path class="cls-1" d="M82.74,34.26c-.44-1.25-.89-2.52-1.35-3.79L80,26.72,78.76,23.2l-1.6-4.43c-.53-1.49-1.06-3-1.6-4.43L81,14.18l1.31,4.45c.44,1.47.87,3,1.31,4.47l1.66,5.66h.46l1.66-5.68c.46-1.53.9-3,1.33-4.47s.86-2.87,1.27-4.27h5.4q-.78,2.21-1.59,4.44c-.54,1.49-1.07,3-1.61,4.46L91,26.8c-.44,1.25-.88,2.49-1.33,3.72s-.89,2.47-1.35,3.74Z" transform="translate(-2.6 -4.48)"/><path class="cls-1" d="M96.44,40.5a16.82,16.82,0,0,0,1.81-2.77,12.93,12.93,0,0,0,1.11-3,14.5,14.5,0,0,0,.38-3.48V5.74h5.6v25.9a15.13,15.13,0,0,1-.27,3,10.82,10.82,0,0,1-.76,2.41A10,10,0,0,1,103.18,39a10.89,10.89,0,0,1-1.4,1.55Z" transform="translate(-2.6 -4.48)"/><path class="cls-1" d="M120.6,34.76a11.44,11.44,0,0,1-4.6-.85,9.15,9.15,0,0,1-3.26-2.33,10,10,0,0,1-1.94-3.38,12.57,12.57,0,0,1-.64-4,11.55,11.55,0,0,1,1.2-5.33,9,9,0,0,1,3.51-3.71,10.89,10.89,0,0,1,5.63-1.36,11.69,11.69,0,0,1,4.49.79,8.89,8.89,0,0,1,3.24,2.21,9.32,9.32,0,0,1,2,3.31,12.31,12.31,0,0,1,.66,4.09,11.67,11.67,0,0,1-1.21,5.38,9.11,9.11,0,0,1-3.51,3.77A10.48,10.48,0,0,1,120.6,34.76Zm0-4.2a4.37,4.37,0,0,0,2.85-.91,5.46,5.46,0,0,0,1.69-2.35,8.3,8.3,0,0,0,.56-3.08,8,8,0,0,0-.63-3.31A4.71,4.71,0,0,0,120.56,18a4.86,4.86,0,0,0-2.87.83,5.14,5.14,0,0,0-1.76,2.23,8.06,8.06,0,0,0-.59,3.14,8.31,8.31,0,0,0,.58,3.08,5.58,5.58,0,0,0,1.75,2.35A4.58,4.58,0,0,0,120.58,30.56Z" transform="translate(-2.6 -4.48)"/><path class="cls-1" d="M146.34,34.76a8,8,0,0,1-2.47-.36,7,7,0,0,1-2-1,8.82,8.82,0,0,1-1.65-1.64h-.38l-.52,2.54h-4.06V5l5.08-.48v12h.44a5.7,5.7,0,0,1,1.36-1.37,6.73,6.73,0,0,1,1.86-.92,7.61,7.61,0,0,1,2.3-.33,7.32,7.32,0,0,1,4.5,1.37,8.3,8.3,0,0,1,2.78,3.74,14.3,14.3,0,0,1,.94,5.33,14.87,14.87,0,0,1-.88,5.18,8.51,8.51,0,0,1-2.7,3.86A7.1,7.1,0,0,1,146.34,34.76Zm-1.84-4.38a4.18,4.18,0,0,0,2.73-.87,5,5,0,0,0,1.57-2.25,8.48,8.48,0,0,0,.5-3,8.17,8.17,0,0,0-.53-3,4.92,4.92,0,0,0-1.6-2.2,4.29,4.29,0,0,0-2.71-.83,5,5,0,0,0-1.58.25,5.59,5.59,0,0,0-1.42.72,4.79,4.79,0,0,0-1.14,1.15v7.46a6.59,6.59,0,0,0,1.06,1.36,4.2,4.2,0,0,0,1.38.89A4.61,4.61,0,0,0,144.5,30.38Z" transform="translate(-2.6 -4.48)"/><path class="cls-1" d="M164.7,34.74a21,21,0,0,1-2.67-.17,16.82,16.82,0,0,1-2.41-.49,14.67,14.67,0,0,1-2-.7l.34-4.5a13.25,13.25,0,0,0,2,.92,13.15,13.15,0,0,0,4.53.82,7.84,7.84,0,0,0,1.6-.15,2,2,0,0,0,1.14-.61,2,2,0,0,0,.42-1.36,1.36,1.36,0,0,0-.42-1,3.88,3.88,0,0,0-1.4-.74c-.65-.23-1.54-.49-2.66-.78a12.1,12.1,0,0,1-2.94-1.13,5,5,0,0,1-1.88-1.8,5.7,5.7,0,0,1-.66-2.93,5.74,5.74,0,0,1,1.92-4.62,7.73,7.73,0,0,1,5.18-1.64,16.67,16.67,0,0,1,2.69.21,19.26,19.26,0,0,1,2.36.53,10.4,10.4,0,0,1,1.81.7l-.38,4.48a10.46,10.46,0,0,0-2-1,14.23,14.23,0,0,0-2.07-.59,8.89,8.89,0,0,0-1.67-.2,4.21,4.21,0,0,0-1.3.19,2,2,0,0,0-1,.63A1.77,1.77,0,0,0,162.9,20a1.85,1.85,0,0,0,.28,1,2.56,2.56,0,0,0,1.08.8,15.16,15.16,0,0,0,2.32.77,23.64,23.64,0,0,1,3.48,1.23,4.8,4.8,0,0,1,2.09,1.7,5.14,5.14,0,0,1,.69,2.85,6.61,6.61,0,0,1-.83,3.37,5.41,5.41,0,0,1-2.63,2.25A11.68,11.68,0,0,1,164.7,34.74Z" transform="translate(-2.6 -4.48)"/><path class="cls-2" d="M23,31.58v1.24L2.6,24.34v-.72L23,15.1v1.24L4.64,23.94Z" transform="translate(-2.6 -4.48)"/><path class="cls-3" d="M195.31,6.26l-17,34H177l17-34Z" transform="translate(-2.6 -4.48)"/><path class="cls-3" d="M198.51,16.34V15.1l20.4,8.48v.72l-20.4,8.52V31.58L216.87,24Z" transform="translate(-2.6 -4.48)"/></g></g></svg>